<svg version="1.1" id="Layer_1" xmlns="http://www.w3.org/2000/svg" xmlns:xlink="http://www.w3.org/1999/xlink" x="0px" y="0px"
	 width="100%" viewBox="0 0 445 480" enable-background="new 0 0 445 480" xml:space="preserve">
<path fill="#FFFFFF" opacity="1.000000" stroke="none" 
	d="
M245.000000,481.000000 
	C163.355270,481.000000 82.210526,481.000000 1.032895,481.000000 
	C1.032895,321.065155 1.032895,161.130325 1.032895,1.097740 
	C149.228043,1.097740 297.456177,1.097740 445.842163,1.097740 
	C445.842163,160.999878 445.842163,320.999908 445.842163,481.000000 
	C379.130341,481.000000 312.315186,481.000000 245.000000,481.000000 
M379.736694,123.203346 
	C373.412384,119.120399 367.451416,114.257416 360.691895,111.108727 
	C344.034424,103.349342 327.110718,96.131622 310.099945,89.170441 
	C297.682953,84.089134 284.691895,80.364304 272.429871,74.961159 
	C253.171341,66.475090 234.304047,57.099968 215.286667,48.068520 
	C208.318039,44.759075 201.584808,40.859287 194.408981,38.100796 
	C180.060898,32.585178 165.388260,27.915901 151.023956,22.439871 
	C136.894501,17.053370 122.362053,15.266795 107.389343,15.989758 
	C102.937782,16.204700 101.603516,18.544050 103.838104,22.495270 
	C104.486580,23.641905 105.269341,24.736393 106.128723,25.735992 
	C110.770172,31.134760 115.423141,36.524330 120.132782,41.863583 
	C126.459671,49.036278 132.841888,56.160168 139.947250,64.144264 
	C132.896667,65.191666 126.840530,66.603523 120.729790,66.903763 
	C101.872795,67.830254 82.982224,68.111534 64.136559,69.196701 
	C60.609272,69.399803 55.817200,68.350731 52.408318,74.035248 
	C77.514168,83.404961 102.061386,92.566185 126.608604,101.727409 
	C120.922310,103.278328 115.654129,103.543686 110.407043,104.034561 
	C106.167534,104.431175 101.953568,105.100533 97.728073,105.647324 
	C86.515053,107.098320 75.317513,108.688164 64.082466,109.941872 
	C58.186867,110.599754 52.210575,110.525009 46.308044,111.139549 
	C45.290527,111.245483 43.457752,113.504814 43.693504,114.167923 
	C47.270493,124.229111 50.365002,134.696838 59.183197,141.737930 
	C65.746788,146.978775 72.476189,152.050323 79.451118,156.720230 
	C82.569458,158.808044 83.008461,161.340363 81.534813,163.803131 
	C75.493073,173.900009 69.548988,184.109451 62.712761,193.664917 
	C50.630627,210.552933 42.817310,229.352081 37.071003,249.027267 
	C32.443031,264.873322 27.048550,280.301758 18.766291,294.626160 
	C14.925069,301.269653 10.973199,307.850555 7.239151,314.553223 
	C6.656023,315.599976 6.970059,317.146515 6.869232,318.461945 
	C8.130259,318.081360 9.549777,317.953796 10.626602,317.279175 
	C17.597538,312.911835 24.226879,307.922089 31.469151,304.080841 
	C47.330261,295.668304 65.103096,295.820129 82.336601,294.146362 
	C96.020355,292.817291 109.802025,294.142517 123.198105,297.144531 
	C136.246613,300.068634 149.324875,303.335144 161.874207,307.876740 
	C174.185059,312.332031 185.846466,318.581909 197.701416,324.762909 
	C194.465027,331.385864 194.466202,331.383392 200.604523,334.288940 
	C201.192825,334.567383 201.792374,334.847626 202.323303,335.217926 
	C212.443848,342.276855 222.580978,349.312531 232.655640,356.436523 
	C236.962296,359.481903 241.111984,362.622009 243.082748,367.947937 
	C244.836227,372.686768 247.420410,376.859741 253.319427,377.372864 
	C254.132751,377.443634 255.041641,378.404205 255.593460,379.176392 
	C259.767670,385.017548 264.079010,390.776855 267.944550,396.819550 
	C280.375671,416.252258 292.342926,435.988556 305.090057,455.209167 
	C310.780914,463.790070 317.904755,471.420532 324.964478,480.212433 
	C327.307373,477.343201 329.297333,475.387146 330.721985,473.081757 
	C338.668915,460.221802 346.055908,446.992371 354.490295,434.465576 
	C359.776184,426.614960 360.207428,416.292511 367.779114,409.769226 
	C368.138580,409.459564 367.965668,408.503174 367.997070,407.845856 
	C368.668884,393.791595 369.627075,379.742737 369.900787,365.680573 
	C370.090546,355.930542 369.329254,346.162354 369.004364,336.401917 
	C368.332581,316.219879 368.005859,296.018341 366.853668,275.863892 
	C366.307861,266.316650 364.581421,256.776459 362.598083,247.400543 
	C361.767792,243.475311 362.379150,242.195847 366.112274,241.973526 
	C367.065704,241.916748 367.994232,241.498871 368.942017,241.280899 
	C376.529053,239.535934 384.103455,236.467331 391.709900,236.384247 
	C402.095642,236.270798 411.321075,234.559296 419.288971,227.693359 
	C422.074097,225.293411 424.965424,225.750977 427.062958,228.396591 
	C430.784760,233.090820 434.126526,238.085602 437.654724,242.934647 
	C438.533752,244.142776 439.517639,245.274597 440.453339,246.441467 
	C441.023407,246.189102 441.593445,245.936722 442.163513,245.684357 
	C441.776093,241.880249 441.009766,238.069962 441.071808,234.273209 
	C441.263123,222.558594 439.670868,211.338623 435.124908,200.353897 
	C429.520874,186.812546 420.901184,175.964249 409.621918,166.798126 
	C403.648193,161.943542 395.244965,159.235275 393.458557,149.374817 
	C395.225433,150.521378 396.617432,151.402985 397.985229,152.320740 
	C398.757416,152.838852 399.423737,153.744095 400.251343,153.910736 
	C403.928406,154.651169 407.641998,155.217087 411.351318,155.788391 
	C414.259521,156.236343 417.172638,156.700485 420.101410,156.936783 
	C420.938629,157.004318 422.536072,156.355972 422.567566,155.942978 
	C422.639679,154.998398 422.066742,153.937653 421.565521,153.029022 
	C420.171234,150.501389 418.080566,148.192490 417.338745,145.501221 
	C415.066498,137.257553 409.161377,132.325867 402.386932,128.189987 
	C395.523468,123.999786 387.748810,123.794693 379.736694,123.203346 
z"/>
<path fill="#010101" opacity="1.000000" stroke="none" 
	d="
M379.990479,123.833992 
	C387.748810,123.794693 395.523468,123.999786 402.386932,128.189987 
	C409.161377,132.325867 415.066498,137.257553 417.338745,145.501221 
	C418.080566,148.192490 420.171234,150.501389 421.565521,153.029022 
	C422.066742,153.937653 422.639679,154.998398 422.567566,155.942978 
	C422.536072,156.355972 420.938629,157.004318 420.101410,156.936783 
	C417.172638,156.700485 414.259521,156.236343 411.351318,155.788391 
	C407.641998,155.217087 403.928406,154.651169 400.251343,153.910736 
	C399.423737,153.744095 398.757416,152.838852 397.985229,152.320740 
	C396.617432,151.402985 395.225433,150.521378 393.458557,149.374817 
	C395.244965,159.235275 403.648193,161.943542 409.621918,166.798126 
	C420.901184,175.964249 429.520874,186.812546 435.124908,200.353897 
	C439.670868,211.338623 441.263123,222.558594 441.071808,234.273209 
	C441.009766,238.069962 441.776093,241.880249 442.163513,245.684357 
	C441.593445,245.936722 441.023407,246.189102 440.453339,246.441467 
	C439.517639,245.274597 438.533752,244.142776 437.654724,242.934647 
	C434.126526,238.085602 430.784760,233.090820 427.062958,228.396591 
	C424.965424,225.750977 422.074097,225.293411 419.288971,227.693359 
	C411.321075,234.559296 402.095642,236.270798 391.709900,236.384247 
	C384.103455,236.467331 376.529053,239.535934 368.942017,241.280899 
	C367.994232,241.498871 367.065704,241.916748 366.112274,241.973526 
	C362.379150,242.195847 361.767792,243.475311 362.598083,247.400543 
	C364.581421,256.776459 366.307861,266.316650 366.853668,275.863892 
	C368.005859,296.018341 368.332581,316.219879 369.004364,336.401917 
	C369.329254,346.162354 370.090546,355.930542 369.900787,365.680573 
	C369.627075,379.742737 368.668884,393.791595 367.997070,407.845856 
	C367.965668,408.503174 368.138580,409.459564 367.779114,409.769226 
	C360.207428,416.292511 359.776184,426.614960 354.490295,434.465576 
	C346.055908,446.992371 338.668915,460.221802 330.721985,473.081757 
	C329.297333,475.387146 327.307373,477.343201 324.964478,480.212433 
	C317.904755,471.420532 310.780914,463.790070 305.090057,455.209167 
	C292.342926,435.988556 280.375671,416.252258 267.944550,396.819550 
	C264.079010,390.776855 259.767670,385.017548 255.593460,379.176392 
	C255.041641,378.404205 254.132751,377.443634 253.319427,377.372864 
	C247.420410,376.859741 244.836227,372.686768 243.082748,367.947937 
	C241.111984,362.622009 236.962296,359.481903 232.655640,356.436523 
	C222.580978,349.312531 212.443848,342.276855 202.323303,335.217926 
	C201.792374,334.847626 201.192825,334.567383 200.604523,334.288940 
	C194.466202,331.383392 194.465027,331.385864 197.869598,324.039246 
	C199.985611,318.634094 203.075027,314.081818 203.622711,309.241882 
	C204.519333,301.318481 208.428894,295.090240 212.159241,288.560822 
	C225.115692,265.882385 238.817932,243.713226 255.803604,223.748825 
	C257.757874,221.451843 256.243622,214.504440 253.567200,214.110977 
	C245.463699,212.919662 237.317261,212.021149 229.188400,211.001724 
	C219.747803,209.817795 210.237579,209.016342 200.888733,207.324265 
	C192.294968,205.768845 183.886047,203.206482 175.375061,201.174133 
	C170.279694,199.957428 165.144714,198.906601 160.027542,197.781204 
	C160.036438,196.870926 160.045319,195.960663 160.054214,195.050385 
	C182.627136,190.927322 206.009033,193.614853 229.435043,188.521500 
	C226.248047,187.424530 223.877960,186.407715 221.407990,185.791138 
	C205.296051,181.769043 189.154053,177.866959 173.054001,173.798508 
	C171.929123,173.514252 171.062561,172.207611 170.075882,171.376404 
	C171.156128,170.581024 172.156570,169.252045 173.329529,169.076599 
	C181.114700,167.912231 188.918396,166.804321 196.751785,166.047745 
	C205.647141,165.188599 214.579819,164.715637 223.496262,164.074783 
	C223.550659,163.606079 223.605072,163.137375 223.659485,162.668671 
	C218.552887,161.344803 213.441299,160.039871 208.340744,158.693207 
	C197.171677,155.744263 186.025955,152.704620 174.835098,149.841232 
	C168.990402,148.345749 162.847595,147.475967 159.183716,141.920273 
	C158.670807,141.142517 159.077286,138.952026 159.813538,138.368408 
	C160.664444,137.693909 162.358200,137.950043 163.675140,138.016739 
	C176.222443,138.652267 188.775620,139.210648 201.310089,140.046570 
	C209.024689,140.561081 216.713776,141.480423 224.406952,142.288208 
	C234.670578,143.365891 244.927063,144.511734 255.186615,145.628311 
	C254.099640,143.994949 252.820770,143.344131 251.464661,142.984406 
	C227.065872,136.512222 202.649704,130.105209 178.271408,123.557091 
	C176.791077,123.159470 175.595642,121.701172 174.267654,120.736397 
	C175.840530,120.156761 177.422394,119.056145 178.984802,119.083084 
	C188.259094,119.242996 197.527069,119.758949 206.801346,119.936523 
	C209.407822,119.986427 212.028381,119.300262 214.900421,118.917336 
	C195.447937,101.661087 175.043243,87.005409 151.895248,75.756424 
	C154.061996,74.531754 156.121872,73.759827 157.878647,74.199387 
	C165.653030,76.144585 173.318329,78.520325 181.063400,80.589424 
	C201.702271,86.103081 222.411804,91.358871 242.997650,97.062225 
	C259.795349,101.716049 277.377472,103.067665 293.693756,109.881699 
	C301.451721,113.121605 309.946442,114.553947 317.992157,117.160889 
	C325.513184,119.597824 332.740906,122.242378 341.023376,120.211777 
	C345.239044,119.178230 350.823303,118.633018 354.270752,120.569618 
	C362.688812,125.298477 371.330719,123.673477 379.990479,123.833992 
M354.657867,212.635712 
	C354.451141,211.487015 354.548798,209.525742 353.990143,209.316452 
	C348.911011,207.413620 343.717377,205.816345 337.880951,204.006714 
	C334.304199,202.258392 330.727448,200.510086 327.749725,199.054581 
	C323.389221,202.228912 319.682922,204.927017 315.166138,208.215118 
	C318.398254,212.144913 321.576813,216.009598 324.944641,220.104416 
	C328.219452,216.985504 329.626617,215.847656 330.788055,214.498260 
	C333.455994,211.398605 336.004181,208.195908 338.973450,205.447220 
	C339.302002,205.628662 339.630554,205.810104 339.980072,206.728683 
	C337.532257,210.430435 335.084442,214.132187 332.051025,218.387909 
	C340.135071,219.716049 347.988281,220.105301 354.657867,212.635712 
M338.954224,165.865662 
	C339.078644,172.963120 342.405457,177.039642 350.230560,179.170151 
	C349.679077,177.899094 349.266815,176.948898 349.001068,175.148376 
	C348.863037,174.343460 348.587555,173.535004 348.608307,172.734192 
	C348.812347,164.860641 348.929840,156.979233 349.459503,149.126175 
	C349.534088,148.019806 351.690491,147.053833 352.679657,146.198822 
	C352.069183,153.730103 351.150848,160.344223 351.073364,166.968185 
	C350.896057,182.125595 359.966156,190.937042 374.965424,191.051315 
	C383.000641,191.112534 388.413574,186.534454 391.836823,180.416672 
	C394.932526,174.884262 396.697784,168.706314 395.328674,161.554886 
	C394.524780,157.356079 391.808685,155.584305 389.927887,152.852676 
	C385.785706,146.836670 380.890533,141.659058 373.429657,139.318359 
	C366.791595,137.235764 360.597198,138.883911 354.073639,139.534058 
	C346.106934,140.328033 342.974701,144.872116 341.109283,151.463699 
	C340.176880,154.758377 339.328400,158.086838 338.678619,161.445801 
	C338.460144,162.575089 338.972809,163.845779 338.954224,165.865662 
M319.430573,217.304367 
	C318.447021,215.988541 317.692261,214.365860 316.429596,213.424408 
	C314.193268,211.757004 311.648285,210.503632 308.643890,208.527191 
	C307.594391,205.480362 305.941132,202.489059 305.654419,199.372055 
	C305.325928,195.800903 304.948975,190.858505 306.944611,188.860001 
	C308.721649,187.080383 313.710846,188.442841 317.277161,188.568314 
	C318.029114,188.594757 318.762390,189.264389 319.497101,189.651260 
	C325.888245,193.016647 332.035309,197.007187 338.722168,199.612869 
	C349.902374,203.969452 361.280792,207.980835 372.851288,211.122864 
	C382.781036,213.819351 393.164398,214.795822 403.223480,217.078094 
	C415.506653,219.864990 428.585419,221.265961 436.789001,232.867203 
	C436.904663,233.030777 437.351593,232.960129 437.877197,233.029678 
	C438.851807,218.581985 434.378113,205.548325 428.010773,192.943237 
	C422.279694,181.597717 412.641113,173.940720 403.053711,166.224274 
	C402.236694,165.566711 401.208282,165.171814 400.278076,164.654892 
	C399.851562,165.777695 399.231384,166.866852 399.029663,168.028671 
	C397.593842,176.298523 395.893677,184.153534 388.474976,189.801224 
	C378.459351,197.425903 363.752319,196.590515 355.201202,187.393646 
	C353.687042,185.765121 351.291931,184.955658 349.303650,183.767960 
	C343.603882,180.363159 336.395538,178.649887 335.840637,169.936646 
	C335.605255,166.240097 333.315216,163.732971 329.106689,162.663010 
	C319.324402,160.175995 309.776825,156.764709 299.992767,154.285950 
	C286.523499,150.873596 267.729034,160.065109 261.750671,172.771271 
	C257.425903,181.963013 255.508667,191.759766 256.073730,201.899643 
	C256.337982,206.641571 256.448059,212.078934 263.775848,211.452164 
	C264.697357,211.373306 265.675781,211.790268 266.608582,212.047379 
	C268.832977,212.660507 269.783295,213.775955 268.140167,215.955414 
	C264.365936,220.961533 265.326477,226.653976 266.809967,231.875519 
	C268.237396,236.899887 270.958191,241.579895 273.306793,246.313904 
	C276.545105,252.841187 281.893433,255.148727 288.921051,253.951233 
	C296.187042,252.713135 303.514465,251.538300 310.857452,251.160400 
	C315.302429,250.931641 317.976379,249.496078 320.555969,245.877304 
	C322.591827,243.021301 326.007935,239.591141 329.071594,239.315842 
	C338.522278,238.466629 348.110809,239.311005 357.620544,238.905258 
	C364.522064,238.610809 371.383514,237.375916 378.262817,236.560364 
	C378.200562,236.113724 378.138306,235.667084 378.076050,235.220444 
	C371.821625,235.220444 365.567200,235.220444 359.312805,235.220444 
	C360.052460,233.760376 360.874786,233.007935 361.717621,232.984192 
	C370.517029,232.736267 379.415192,231.723221 388.097656,232.662628 
	C399.232330,233.867340 409.106537,232.629013 418.274048,223.539795 
	C397.929321,219.342957 378.221344,215.277466 359.955017,211.509369 
	C356.902100,214.484589 354.854126,217.768921 351.918213,219.111282 
	C341.110077,224.052948 330.205444,223.717896 319.430573,217.304367 
M414.694946,147.708817 
	C412.275452,139.404602 406.829834,133.744034 399.098602,130.238510 
	C391.474518,126.781540 383.300842,125.965576 375.097656,126.452965 
	C368.174988,126.864273 361.288300,128.338623 354.912079,124.176498 
	C353.978760,123.567261 352.744843,122.988136 351.693604,123.057281 
	C342.469818,123.663940 333.255920,124.420952 322.851929,125.225174 
	C327.414551,129.289749 330.609711,133.097488 334.656189,135.425613 
	C337.694427,137.173660 342.634186,138.697067 345.322205,137.402573 
	C353.777100,133.330856 362.259796,133.184860 370.870209,135.131836 
	C377.805115,136.699951 384.685822,138.897659 391.222992,141.679794 
	C394.802460,143.203201 397.296082,147.224823 400.858215,148.854919 
	C405.989410,151.203064 411.647461,152.399902 417.273407,154.147980 
	C416.385040,151.938477 415.675995,150.174988 414.694946,147.708817 
M319.780762,193.640137 
	C317.580475,192.517502 315.471680,191.126633 313.157745,190.337082 
	C309.938599,189.238632 307.076385,189.961838 308.105438,194.091782 
	C309.007385,197.711502 311.009308,201.057098 312.931091,205.451538 
	C317.249847,202.470154 320.723816,200.071945 324.720581,197.312836 
	C322.722595,195.744827 321.580231,194.848312 319.780762,193.640137 
M295.032959,255.220245 
	C291.649963,256.041077 288.266968,256.861908 284.917023,257.674744 
	C288.663940,260.563080 297.930573,259.483093 304.156799,255.007996 
	C300.989319,255.007996 298.435120,255.007996 295.032959,255.220245 
M280.960175,258.980133 
	C277.554932,256.985809 274.149689,254.991470 270.744415,252.997131 
	C270.496704,253.497482 270.249023,253.997833 270.001312,254.498184 
	C272.933228,257.643219 275.929382,260.664368 280.960175,258.980133 
z"/>
<path fill="#ED1D25" opacity="1.000000" stroke="none" 
	d="
M379.863586,123.518669 
	C371.330719,123.673477 362.688812,125.298477 354.270752,120.569618 
	C350.823303,118.633018 345.239044,119.178230 341.023376,120.211777 
	C332.740906,122.242378 325.513184,119.597824 317.992157,117.160889 
	C309.946442,114.553947 301.451721,113.121605 293.693756,109.881699 
	C277.377472,103.067665 259.795349,101.716049 242.997650,97.062225 
	C222.411804,91.358871 201.702271,86.103081 181.063400,80.589424 
	C173.318329,78.520325 165.653030,76.144585 157.878647,74.199387 
	C156.121872,73.759827 154.061996,74.531754 151.895248,75.756424 
	C175.043243,87.005409 195.447937,101.661087 214.900421,118.917336 
	C212.028381,119.300262 209.407822,119.986427 206.801346,119.936523 
	C197.527069,119.758949 188.259094,119.242996 178.984802,119.083084 
	C177.422394,119.056145 175.840530,120.156761 174.267654,120.736397 
	C175.595642,121.701172 176.791077,123.159470 178.271408,123.557091 
	C202.649704,130.105209 227.065872,136.512222 251.464661,142.984406 
	C252.820770,143.344131 254.099640,143.994949 255.186615,145.628311 
	C244.927063,144.511734 234.670578,143.365891 224.406952,142.288208 
	C216.713776,141.480423 209.024689,140.561081 201.310089,140.046570 
	C188.775620,139.210648 176.222443,138.652267 163.675140,138.016739 
	C162.358200,137.950043 160.664444,137.693909 159.813538,138.368408 
	C159.077286,138.952026 158.670807,141.142517 159.183716,141.920273 
	C162.847595,147.475967 168.990402,148.345749 174.835098,149.841232 
	C186.025955,152.704620 197.171677,155.744263 208.340744,158.693207 
	C213.441299,160.039871 218.552887,161.344803 223.659485,162.668671 
	C223.605072,163.137375 223.550659,163.606079 223.496262,164.074783 
	C214.579819,164.715637 205.647141,165.188599 196.751785,166.047745 
	C188.918396,166.804321 181.114700,167.912231 173.329529,169.076599 
	C172.156570,169.252045 171.156128,170.581024 170.075882,171.376404 
	C171.062561,172.207611 171.929123,173.514252 173.054001,173.798508 
	C189.154053,177.866959 205.296051,181.769043 221.407990,185.791138 
	C223.877960,186.407715 226.248047,187.424530 229.435043,188.521500 
	C206.009033,193.614853 182.627136,190.927322 160.054214,195.050385 
	C160.045319,195.960663 160.036438,196.870926 160.027542,197.781204 
	C165.144714,198.906601 170.279694,199.957428 175.375061,201.174133 
	C183.886047,203.206482 192.294968,205.768845 200.888733,207.324265 
	C210.237579,209.016342 219.747803,209.817795 229.188400,211.001724 
	C237.317261,212.021149 245.463699,212.919662 253.567200,214.110977 
	C256.243622,214.504440 257.757874,221.451843 255.803604,223.748825 
	C238.817932,243.713226 225.115692,265.882385 212.159241,288.560822 
	C208.428894,295.090240 204.519333,301.318481 203.622711,309.241882 
	C203.075027,314.081818 199.985611,318.634094 197.915344,323.679871 
	C185.846466,318.581909 174.185059,312.332031 161.874207,307.876740 
	C149.324875,303.335144 136.246613,300.068634 123.198105,297.144531 
	C109.802025,294.142517 96.020355,292.817291 82.336601,294.146362 
	C65.103096,295.820129 47.330261,295.668304 31.469151,304.080841 
	C24.226879,307.922089 17.597538,312.911835 10.626602,317.279175 
	C9.549777,317.953796 8.130259,318.081360 6.869232,318.461945 
	C6.970059,317.146515 6.656023,315.599976 7.239151,314.553223 
	C10.973199,307.850555 14.925069,301.269653 18.766291,294.626160 
	C27.048550,280.301758 32.443031,264.873322 37.071003,249.027267 
	C42.817310,229.352081 50.630627,210.552933 62.712761,193.664917 
	C69.548988,184.109451 75.493073,173.900009 81.534813,163.803131 
	C83.008461,161.340363 82.569458,158.808044 79.451118,156.720230 
	C72.476189,152.050323 65.746788,146.978775 59.183197,141.737930 
	C50.365002,134.696838 47.270493,124.229111 43.693504,114.167923 
	C43.457752,113.504814 45.290527,111.245483 46.308044,111.139549 
	C52.210575,110.525009 58.186867,110.599754 64.082466,109.941872 
	C75.317513,108.688164 86.515053,107.098320 97.728073,105.647324 
	C101.953568,105.100533 106.167534,104.431175 110.407043,104.034561 
	C115.654129,103.543686 120.922310,103.278328 126.608604,101.727409 
	C102.061386,92.566185 77.514168,83.404961 52.408318,74.035248 
	C55.817200,68.350731 60.609272,69.399803 64.136559,69.196701 
	C82.982224,68.111534 101.872795,67.830254 120.729790,66.903763 
	C126.840530,66.603523 132.896667,65.191666 139.947250,64.144264 
	C132.841888,56.160168 126.459671,49.036278 120.132782,41.863583 
	C115.423141,36.524330 110.770172,31.134760 106.128723,25.735992 
	C105.269341,24.736393 104.486580,23.641905 103.838104,22.495270 
	C101.603516,18.544050 102.937782,16.204700 107.389343,15.989758 
	C122.362053,15.266795 136.894501,17.053370 151.023956,22.439871 
	C165.388260,27.915901 180.060898,32.585178 194.408981,38.100796 
	C201.584808,40.859287 208.318039,44.759075 215.286667,48.068520 
	C234.304047,57.099968 253.171341,66.475090 272.429871,74.961159 
	C284.691895,80.364304 297.682953,84.089134 310.099945,89.170441 
	C327.110718,96.131622 344.034424,103.349342 360.691895,111.108727 
	C367.451416,114.257416 373.412384,119.120399 379.863586,123.518669 
M53.989307,272.621033 
	C53.325890,275.977783 52.284725,279.312653 52.088879,282.696442 
	C51.805450,287.593597 55.238380,289.299225 59.555061,287.006073 
	C63.139034,285.102142 66.954346,283.636749 70.648399,281.936279 
	C77.506020,278.779572 84.695610,276.811951 89.991615,270.276245 
	C94.633171,264.548218 96.724541,259.040497 96.084404,251.911163 
	C95.654579,247.123993 96.004623,242.266998 96.002083,237.441238 
	C95.998947,231.494354 91.972855,226.927658 86.105652,225.982697 
	C83.368050,225.541763 80.680954,224.787323 77.744026,224.123718 
	C74.836197,228.517288 71.072357,232.992249 68.656174,238.104187 
	C63.428596,249.164200 58.891479,260.550568 53.989307,272.621033 
M173.098892,273.095032 
	C174.137405,273.729187 175.099274,274.620148 176.226654,274.956482 
	C184.629684,277.463226 192.018494,275.107147 199.534393,271.002319 
	C208.896133,265.889374 212.616760,257.739990 213.825821,248.009003 
	C214.069351,246.049042 212.602722,243.143112 210.986176,241.818787 
	C205.451294,237.284515 198.779648,235.603928 191.669708,236.085999 
	C190.450455,236.168671 188.254181,237.420471 188.290054,238.026886 
	C188.649704,244.107391 183.425583,247.041641 180.979752,251.482834 
	C177.357742,258.059753 172.777145,264.197418 173.098892,273.095032 
M139.510880,146.918243 
	C132.114838,144.847504 124.778412,142.520554 117.305199,140.781418 
	C110.465858,139.189804 103.506004,138.008560 96.536659,137.161560 
	C94.873505,136.959457 92.160233,138.391525 91.408852,139.839432 
	C90.771072,141.068436 91.818771,143.756683 92.927567,145.163116 
	C94.393425,147.022430 96.621109,148.294586 98.564835,149.761505 
	C110.326965,158.638245 124.007515,159.667770 137.932877,158.839035 
	C141.754044,158.611633 145.461365,156.471100 148.949295,155.299698 
	C148.225647,149.161362 143.465118,149.088272 139.510880,146.918243 
M127.691788,74.996902 
	C120.392540,75.028748 120.379471,75.033600 122.961365,81.990944 
	C123.582741,83.665352 123.924088,85.681664 125.080826,86.875443 
	C128.768661,90.681427 132.618774,94.382927 136.802994,97.610352 
	C137.631607,98.249489 140.323822,95.901505 141.983322,96.139488 
	C147.382416,96.913734 149.132278,93.269173 151.109726,89.568115 
	C154.206863,83.771454 150.967346,76.928413 144.388748,76.100136 
	C139.170212,75.443085 133.881439,75.343819 127.691788,74.996902 
z"/>
<path fill="#FDF001" opacity="1.000000" stroke="none" 
	d="
M319.656189,217.890701 
	C330.205444,223.717896 341.110077,224.052948 351.918213,219.111282 
	C354.854126,217.768921 356.902100,214.484589 359.955017,211.509369 
	C378.221344,215.277466 397.929321,219.342957 418.274048,223.539795 
	C409.106537,232.629013 399.232330,233.867340 388.097656,232.662628 
	C379.415192,231.723221 370.517029,232.736267 361.717621,232.984192 
	C360.874786,233.007935 360.052460,233.760376 359.312805,235.220444 
	C365.567200,235.220444 371.821625,235.220444 378.076050,235.220444 
	C378.138306,235.667084 378.200562,236.113724 378.262817,236.560364 
	C371.383514,237.375916 364.522064,238.610809 357.620544,238.905258 
	C348.110809,239.311005 338.522278,238.466629 329.071594,239.315842 
	C326.007935,239.591141 322.591827,243.021301 320.555969,245.877304 
	C317.976379,249.496078 315.302429,250.931641 310.857452,251.160400 
	C303.514465,251.538300 296.187042,252.713135 288.921051,253.951233 
	C281.893433,255.148727 276.545105,252.841187 273.306793,246.313904 
	C270.958191,241.579895 268.237396,236.899887 266.809967,231.875519 
	C265.326477,226.653976 264.365936,220.961533 268.140167,215.955414 
	C269.783295,213.775955 268.832977,212.660507 266.608582,212.047379 
	C265.675781,211.790268 264.697357,211.373306 263.775848,211.452164 
	C256.448059,212.078934 256.337982,206.641571 256.073730,201.899643 
	C255.508667,191.759766 257.425903,181.963013 261.750671,172.771271 
	C267.729034,160.065109 286.523499,150.873596 299.992767,154.285950 
	C309.776825,156.764709 319.324402,160.175995 329.106689,162.663010 
	C333.315216,163.732971 335.605255,166.240097 335.840637,169.936646 
	C336.395538,178.649887 343.603882,180.363159 349.303650,183.767960 
	C351.291931,184.955658 353.687042,185.765121 355.201202,187.393646 
	C363.752319,196.590515 378.459351,197.425903 388.474976,189.801224 
	C395.893677,184.153534 397.593842,176.298523 399.029663,168.028671 
	C399.231384,166.866852 399.851562,165.777695 400.278076,164.654877 
	C401.208282,165.171814 402.236694,165.566711 403.053711,166.224274 
	C412.641113,173.940720 422.279694,181.597717 428.010773,192.943237 
	C434.378113,205.548325 438.851807,218.581985 437.877197,233.029678 
	C437.351593,232.960129 436.904663,233.030777 436.789001,232.867203 
	C428.585419,221.265961 415.506653,219.864990 403.223480,217.078094 
	C393.164398,214.795822 382.781036,213.819351 372.851288,211.122864 
	C361.280792,207.980835 349.902374,203.969452 338.722168,199.612869 
	C332.035309,197.007187 325.888245,193.016647 319.497101,189.651260 
	C318.762390,189.264389 318.029114,188.594757 317.277161,188.568314 
	C313.710846,188.442841 308.721649,187.080383 306.944611,188.860001 
	C304.948975,190.858505 305.325928,195.800903 305.654419,199.372055 
	C305.941132,202.489059 307.594391,205.480362 309.036682,209.108948 
	C312.496338,212.850632 313.800110,218.209396 319.656189,217.890701 
M426.481689,206.977707 
	C422.021332,199.598587 417.560974,192.219452 413.100616,184.840332 
	C412.707764,185.030899 412.314880,185.221466 411.921997,185.412033 
	C412.145782,186.988235 411.943085,188.799240 412.661102,190.103302 
	C418.168365,200.105469 423.827850,210.024597 429.552765,219.904190 
	C429.890686,220.487350 431.202972,220.505875 432.061859,220.787170 
	C432.167847,219.802734 432.670013,218.633621 432.311981,217.865494 
	C430.675446,214.354584 428.797638,210.956161 426.481689,206.977707 
M407.948242,183.879944 
	C411.795776,179.777298 411.833771,179.273422 408.294647,177.109421 
	C403.560425,186.174316 403.581726,173.562256 400.326630,175.329025 
	C399.690735,181.651825 401.166504,183.521255 407.948242,183.879944 
z"/>
<path fill="#FDFCFC" opacity="1.000000" stroke="none" 
	d="
M339.151306,165.051849 
	C338.972809,163.845779 338.460144,162.575089 338.678619,161.445801 
	C339.328400,158.086838 340.176880,154.758377 341.109283,151.463699 
	C342.974701,144.872116 346.106934,140.328033 354.073639,139.534058 
	C360.597198,138.883911 366.791595,137.235764 373.429657,139.318359 
	C380.890533,141.659058 385.785706,146.836670 389.927887,152.852676 
	C391.808685,155.584305 394.524780,157.356079 395.328674,161.554886 
	C396.697784,168.706314 394.932526,174.884262 391.836823,180.416672 
	C388.413574,186.534454 383.000641,191.112534 374.965424,191.051315 
	C359.966156,190.937042 350.896057,182.125595 351.073364,166.968185 
	C351.150848,160.344223 352.069183,153.730103 352.679657,146.198822 
	C351.690491,147.053833 349.534088,148.019806 349.459503,149.126175 
	C348.929840,156.979233 348.812347,164.860641 348.608307,172.734192 
	C348.587555,173.535004 348.863037,174.343460 348.626282,175.436417 
	C345.218079,172.166916 342.184692,168.609375 339.151306,165.051849 
M379.603180,170.230301 
	C379.737427,169.871399 379.871674,169.512497 380.696014,168.774445 
	C384.230042,161.636200 382.319000,158.944427 372.988190,158.999298 
	C365.457947,158.812973 363.607635,159.890350 363.005035,164.812225 
	C362.328613,170.336823 363.803070,172.604218 369.712494,174.559692 
	C374.178619,176.037582 377.342255,174.440247 379.001495,170.004272 
	C379.001495,170.004272 379.037628,170.066040 379.603180,170.230301 
z"/>
<path fill="#F9F9F9" opacity="1.000000" stroke="none" 
	d="
M414.830933,148.060150 
	C415.675995,150.174988 416.385040,151.938477 417.273407,154.147980 
	C411.647461,152.399902 405.989410,151.203064 400.858215,148.854919 
	C397.296082,147.224823 394.802460,143.203201 391.222992,141.679794 
	C384.685822,138.897659 377.805115,136.699951 370.870209,135.131836 
	C362.259796,133.184860 353.777100,133.330856 345.322205,137.402573 
	C342.634186,138.697067 337.694427,137.173660 334.656189,135.425613 
	C330.609711,133.097488 327.414551,129.289749 322.851929,125.225174 
	C333.255920,124.420952 342.469818,123.663940 351.693604,123.057281 
	C352.744843,122.988136 353.978760,123.567261 354.912079,124.176498 
	C361.288300,128.338623 368.174988,126.864273 375.097656,126.452965 
	C383.300842,125.965576 391.474518,126.781540 399.098602,130.238510 
	C406.829834,133.744034 412.275452,139.404602 414.830933,148.060150 
z"/>
<path fill="#F6F6F5" opacity="1.000000" stroke="none" 
	d="
M338.600983,205.035019 
	C336.004181,208.195908 333.455994,211.398605 330.788055,214.498260 
	C329.626617,215.847656 328.219452,216.985504 324.944641,220.104416 
	C321.576813,216.009598 318.398254,212.144913 315.166138,208.215118 
	C319.682922,204.927017 323.389221,202.228912 327.749725,199.054581 
	C330.727448,200.510086 334.304199,202.258392 338.207581,204.186707 
	C338.459625,204.620636 338.481873,204.843399 338.600983,205.035019 
z"/>
<path fill="#F2F2F2" opacity="1.000000" stroke="none" 
	d="
M320.109314,193.795975 
	C321.580231,194.848312 322.722595,195.744827 324.720581,197.312836 
	C320.723816,200.071945 317.249847,202.470154 312.931091,205.451538 
	C311.009308,201.057098 309.007385,197.711502 308.105438,194.091782 
	C307.076385,189.961838 309.938599,189.238632 313.157745,190.337082 
	C315.471680,191.126633 317.580475,192.517502 320.109314,193.795975 
z"/>
<path fill="#FFFEF4" opacity="1.000000" stroke="none" 
	d="
M332.636627,217.833954 
	C335.084442,214.132187 337.532257,210.430435 340.331909,206.399811 
	C343.169769,207.296524 345.620819,208.601242 348.153473,209.721420 
	C350.013855,210.544266 351.981140,211.125427 353.521301,211.862595 
	C346.306732,213.885254 339.471680,215.859604 332.636627,217.833954 
z"/>
<path fill="#F8EC05" opacity="1.000000" stroke="none" 
	d="
M332.343811,218.110931 
	C339.471680,215.859604 346.306732,213.885254 353.545715,212.157043 
	C353.965363,212.599472 353.981110,212.795792 353.996857,212.992096 
	C347.988281,220.105301 340.135071,219.716049 332.343811,218.110931 
z"/>
<path fill="#F8EC07" opacity="1.000000" stroke="none" 
	d="
M339.052765,165.458740 
	C342.184692,168.609375 345.218079,172.166916 348.553009,175.861572 
	C349.266815,176.948898 349.679077,177.899094 350.230560,179.170151 
	C342.405457,177.039642 339.078644,172.963120 339.052765,165.458740 
z"/>
<path fill="#F5E906" opacity="1.000000" stroke="none" 
	d="
M295.456970,255.114120 
	C298.435120,255.007996 300.989319,255.007996 304.156799,255.007996 
	C297.930573,259.483093 288.663940,260.563080 284.917023,257.674744 
	C288.266968,256.861908 291.649963,256.041077 295.456970,255.114120 
z"/>
<path fill="#E9DD03" opacity="1.000000" stroke="none" 
	d="
M354.327362,212.813904 
	C353.981110,212.795792 353.965363,212.599472 353.925201,212.108734 
	C351.981140,211.125427 350.013855,210.544266 348.153473,209.721420 
	C345.620819,208.601242 343.169769,207.296524 340.321411,206.031235 
	C339.630554,205.810104 339.302002,205.628662 338.787231,205.241119 
	C338.481873,204.843399 338.459625,204.620636 338.545715,204.248215 
	C343.717377,205.816345 348.911011,207.413620 353.990143,209.316452 
	C354.548798,209.525742 354.451141,211.487015 354.327362,212.813904 
z"/>
<path fill="#E6E5D2" opacity="1.000000" stroke="none" 
	d="
M319.543396,217.597534 
	C313.800110,218.209396 312.496338,212.850632 309.330963,209.383865 
	C311.648285,210.503632 314.193268,211.757004 316.429596,213.424408 
	C317.692261,214.365860 318.447021,215.988541 319.543396,217.597534 
z"/>
<path fill="#E4D803" opacity="1.000000" stroke="none" 
	d="
M280.958313,259.373779 
	C275.929382,260.664368 272.933228,257.643219 270.001312,254.498184 
	C270.249023,253.997833 270.496704,253.497482 270.744415,252.997131 
	C274.149689,254.991470 277.554932,256.985809 280.958313,259.373779 
z"/>
<path fill="#010101" opacity="1.000000" stroke="none" 
	d="
M54.030628,272.212219 
	C58.891479,260.550568 63.428596,249.164200 68.656174,238.104187 
	C71.072357,232.992249 74.836197,228.517288 77.744026,224.123718 
	C80.680954,224.787323 83.368050,225.541763 86.105652,225.982697 
	C91.972855,226.927658 95.998947,231.494354 96.002083,237.441238 
	C96.004623,242.266998 95.654579,247.123993 96.084404,251.911163 
	C96.724541,259.040497 94.633171,264.548218 89.991615,270.276245 
	C84.695610,276.811951 77.506020,278.779572 70.648399,281.936279 
	C66.954346,283.636749 63.139034,285.102142 59.555061,287.006073 
	C55.238380,289.299225 51.805450,287.593597 52.088879,282.696442 
	C52.284725,279.312653 53.325890,275.977783 54.030628,272.212219 
z"/>
<path fill="#010101" opacity="1.000000" stroke="none" 
	d="
M173.061264,272.663757 
	C172.777145,264.197418 177.357742,258.059753 180.979752,251.482834 
	C183.425583,247.041641 188.649704,244.107391 188.290054,238.026886 
	C188.254181,237.420471 190.450455,236.168671 191.669708,236.085999 
	C198.779648,235.603928 205.451294,237.284515 210.986176,241.818787 
	C212.602722,243.143112 214.069351,246.049042 213.825821,248.009003 
	C212.616760,257.739990 208.896133,265.889374 199.534393,271.002319 
	C192.018494,275.107147 184.629684,277.463226 176.226654,274.956482 
	C175.099274,274.620148 174.137405,273.729187 173.061264,272.663757 
z"/>
<path fill="#010101" opacity="1.000000" stroke="none" 
	d="
M139.886810,147.022095 
	C143.465118,149.088272 148.225647,149.161362 148.949295,155.299698 
	C145.461365,156.471100 141.754044,158.611633 137.932877,158.839035 
	C124.007515,159.667770 110.326965,158.638245 98.564835,149.761505 
	C96.621109,148.294586 94.393425,147.022430 92.927567,145.163116 
	C91.818771,143.756683 90.771072,141.068436 91.408852,139.839432 
	C92.160233,138.391525 94.873505,136.959457 96.536659,137.161560 
	C103.506004,138.008560 110.465858,139.189804 117.305199,140.781418 
	C124.778412,142.520554 132.114838,144.847504 139.886810,147.022095 
z"/>
<path fill="#010101" opacity="1.000000" stroke="none" 
	d="
M128.157822,74.996902 
	C133.881439,75.343819 139.170212,75.443085 144.388748,76.100136 
	C150.967346,76.928413 154.206863,83.771454 151.109726,89.568115 
	C149.132278,93.269173 147.382416,96.913734 141.983322,96.139488 
	C140.323822,95.901505 137.631607,98.249489 136.802994,97.610352 
	C132.618774,94.382927 128.768661,90.681427 125.080826,86.875443 
	C123.924088,85.681664 123.582741,83.665352 122.961365,81.990944 
	C120.379471,75.033600 120.392540,75.028748 128.157822,74.996902 
z"/>
<path fill="#070707" opacity="1.000000" stroke="none" 
	d="
M426.744141,207.247513 
	C428.797638,210.956161 430.675446,214.354584 432.311981,217.865494 
	C432.670013,218.633621 432.167847,219.802734 432.061859,220.787170 
	C431.202972,220.505875 429.890686,220.487350 429.552765,219.904190 
	C423.827850,210.024597 418.168365,200.105469 412.661102,190.103302 
	C411.943085,188.799240 412.145782,186.988235 411.921997,185.412033 
	C412.314880,185.221466 412.707764,185.030899 413.100616,184.840332 
	C417.560974,192.219452 422.021332,199.598587 426.744141,207.247513 
z"/>
<path fill="#101010" opacity="1.000000" stroke="none" 
	d="
M407.553162,183.946167 
	C401.166504,183.521255 399.690735,181.651825 400.326630,175.329025 
	C403.581726,173.562256 403.560425,186.174316 408.294647,177.109421 
	C411.833771,179.273422 411.795776,179.777298 407.553162,183.946167 
z"/>
<path fill="#070202" opacity="1.000000" stroke="none" 
	d="
M373.832916,159.107635 
	C382.319000,158.944427 384.230042,161.636200 380.062927,168.958496 
	C379.299072,169.450394 379.168365,169.758209 379.037628,170.066040 
	C379.037628,170.066040 379.001495,170.004272 378.638062,169.948730 
	C376.762054,170.420715 375.085571,171.641174 373.771362,171.330246 
	C371.108765,170.700272 367.558167,169.894165 366.385498,167.948273 
	C365.087738,165.794815 366.064484,162.494888 370.043884,161.866287 
	C371.417847,161.649277 372.576111,160.066528 373.832916,159.107635 
z"/>
<path fill="#E72129" opacity="1.000000" stroke="none" 
	d="
M373.410553,159.053467 
	C372.576111,160.066528 371.417847,161.649277 370.043884,161.866287 
	C366.064484,162.494888 365.087738,165.794815 366.385498,167.948273 
	C367.558167,169.894165 371.108765,170.700272 373.771362,171.330246 
	C375.085571,171.641174 376.762054,170.420715 378.668243,169.967941 
	C377.342255,174.440247 374.178619,176.037582 369.712494,174.559692 
	C363.803070,172.604218 362.328613,170.336823 363.005035,164.812225 
	C363.607635,159.890350 365.457947,158.812973 373.410553,159.053467 
z"/>
<path fill="#E72129" opacity="1.000000" stroke="none" 
	d="
M379.320404,170.148163 
	C379.168365,169.758209 379.299072,169.450394 379.717834,169.148071 
	C379.871674,169.512497 379.737427,169.871399 379.320404,170.148163 
z"/>
</svg>